<svg width="134" height="134" viewBox="0 0 134 134" fill="none" xmlns="http://www.w3.org/2000/svg">
<rect width="134" height="134" rx="67" fill="#F5F5F7"/>
<path fill-rule="evenodd" clip-rule="evenodd" d="M64.1507 33.4793C61.0962 34.0667 58.9101 35.0025 56.6108 36.7074C52.7908 39.5397 50.3491 43.674 49.6608 48.4749C49.4639 49.8479 49.5736 52.9053 49.8684 54.2573C51.3611 61.1053 56.6646 66.3682 63.561 67.8448C65.1264 68.18 68.8103 68.18 70.3757 67.8448C77.3511 66.3513 82.6002 61.1023 84.0942 54.1262C84.4289 52.5641 84.4294 48.8789 84.0953 47.3115C82.6101 40.3428 77.471 35.1619 70.5068 33.6122C69.1808 33.3171 65.4048 33.2382 64.1507 33.4793Z" fill="#D9D9D9"/>
<path opacity="0.99" fill-rule="evenodd" clip-rule="evenodd" d="M52.6444 69.5934C46.3535 70.8369 40.6565 75.0965 37.7166 80.7546C36.7447 82.6252 36.7416 82.8634 37.6693 84.3418C40.9889 89.6325 46.6269 94.5916 52.2643 97.1794C59.1166 100.325 66.6585 101.19 74.027 99.6764C83.0055 97.832 90.8409 92.4678 96.0255 84.6164C97.2394 82.7778 97.2545 82.6411 96.4277 80.9537C94.9721 77.9835 92.2194 74.9134 89.1556 72.8434C86.806 71.256 83.7545 70.0169 80.9954 69.5297C79.3956 69.2473 78.7559 69.3719 77.5103 70.2083C71.1187 74.5004 63.0142 74.5536 56.7463 70.3448C55.1377 69.2646 54.7069 69.1857 52.6444 69.5934Z" fill="#D9D9D9"/>
</svg>
